/* XPM */
static char * sdlroids_48x48_xpm[] = {
"48 48 731 2",
"  	c None",
". 	c #000000",
"+ 	c #020202",
"@ 	c #050505",
"# 	c #040404",
"$ 	c #010101",
"% 	c #080808",
"& 	c #1C1C1C",
"* 	c #181818",
"= 	c #030303",
"- 	c #0D0D0D",
"; 	c #303030",
"> 	c #292929",
", 	c #0F0F0F",
"' 	c #101010",
") 	c #1B1B1B",
"! 	c #070707",
"~ 	c #141414",
"{ 	c #383838",
"] 	c #606060",
"^ 	c #2F2F2F",
"/ 	c #060606",
"( 	c #515151",
"_ 	c #282828",
": 	c #111111",
"< 	c #1D1D1D",
"[ 	c #0E0E0E",
"} 	c #131313",
"| 	c #434343",
"1 	c #000001",
"2 	c #000002",
"3 	c #000008",
"4 	c #00000D",
"5 	c #000007",
"6 	c #000004",
"7 	c #00001C",
"8 	c #000030",
"9 	c #000018",
"0 	c #000029",
"a 	c #000014",
"b 	c #000006",
"c 	c #000009",
"d 	c #00000F",
"e 	c #191919",
"f 	c #151515",
"g 	c #010100",
"h 	c #020200",
"i 	c #020201",
"j 	c #000003",
"k 	c #585858",
"l 	c #4B4B4B",
"m 	c #070706",
"n 	c #060600",
"o 	c #0C0B02",
"p 	c #0D0D08",
"q 	c #090907",
"r 	c #3F3F3F",
"s 	c #191917",
"t 	c #0F0F05",
"u 	c #2C2A03",
"v 	c #534F10",
"w 	c #5C5A38",
"x 	c #3D3C2F",
"y 	c #131311",
"z 	c #090909",
"A 	c #131208",
"B 	c #282402",
"C 	c #695805",
"D 	c #AE931B",
"E 	c #BCAE60",
"F 	c #7B7751",
"G 	c #26261D",
"H 	c #736200",
"I 	c #B47502",
"J 	c #E07D0D",
"K 	c #DBAB2F",
"L 	c #8B7C28",
"M 	c #2B2A0E",
"N 	c #0A0A03",
"O 	c #0C0C0C",
"P 	c #2A2A2A",
"Q 	c #242424",
"R 	c #0A0A00",
"S 	c #302A00",
"T 	c #695400",
"U 	c #B06F00",
"V 	c #D97A01",
"W 	c #E17E04",
"X 	c #B28610",
"Y 	c #67590D",
"Z 	c #1D1C05",
"` 	c #060601",
" .	c #494949",
"..	c #3D3D3D",
"+.	c #161616",
"@.	c #010202",
"#.	c #000202",
"$.	c #000102",
"%.	c #010102",
"&.	c #0A0A0A",
"*.	c #262626",
"=.	c #100F0F",
"-.	c #060604",
";.	c #0B0900",
">.	c #252200",
",.	c #675300",
"'.	c #AF7900",
").	c #C95900",
"!.	c #CD6600",
"~.	c #B67B00",
"{.	c #695201",
"].	c #2F2901",
"^.	c #232323",
"/.	c #1E1E1E",
"(.	c #0B0B0B",
"_.	c #020404",
":.	c #000606",
"<.	c #000C0C",
"[.	c #000E0E",
"}.	c #000C0E",
"|.	c #00050E",
"1.	c #00020E",
"2.	c #00000E",
"3.	c #01010E",
"4.	c #06060E",
"5.	c #0C0C0E",
"6.	c #272727",
"7.	c #6B6B6B",
"8.	c #8D8D8B",
"9.	c #858583",
"0.	c #3A3938",
"a.	c #1A1410",
"b.	c #251A01",
"c.	c #6A5D00",
"d.	c #A46900",
"e.	c #BE5100",
"f.	c #892A00",
"g.	c #672B00",
"h.	c #4E3700",
"i.	c #272000",
"j.	c #0F0E00",
"k.	c #030300",
"l.	c #040606",
"m.	c #010B0B",
"n.	c #00292C",
"o.	c #004E54",
"p.	c #005B62",
"q.	c #005C66",
"r.	c #015066",
"s.	c #052766",
"t.	c #071166",
"u.	c #080966",
"v.	c #0D0D66",
"w.	c #2F3069",
"x.	c #57586B",
"y.	c #616165",
"z.	c #656565",
"A.	c #707070",
"B.	c #959595",
"C.	c #A5A5A3",
"D.	c #959491",
"E.	c #48433E",
"F.	c #3C1912",
"G.	c #551701",
"H.	c #714C00",
"I.	c #844A01",
"J.	c #802A02",
"K.	c #471001",
"L.	c #270D00",
"M.	c #171100",
"N.	c #090800",
"O.	c #010000",
"P.	c #020000",
"Q.	c #000909",
"R.	c #002226",
"S.	c #015669",
"T.	c #028DB1",
"U.	c #02A0C9",
"V.	c #02A2CF",
"W.	c #0891CE",
"X.	c #1D57CD",
"Y.	c #2838CE",
"Z.	c #2D2ECF",
"`.	c #3535CF",
" +	c #6F70D3",
".+	c #B2B5D4",
"++	c #BCBDC4",
"@+	c #BBBBBB",
"#+	c #B3B3B3",
"$+	c #A1A1A1",
"%+	c #8F8E8C",
"&+	c #77746D",
"*+	c #51472E",
"=+	c #60230D",
"-+	c #791001",
";+	c #531E02",
">+	c #411F08",
",+	c #35170D",
"'+	c #180907",
")+	c #080302",
"!+	c #020100",
"~+	c #040000",
"{+	c #0C0000",
"]+	c #0B0000",
"^+	c #050000",
"/+	c #000405",
"(+	c #00191D",
"_+	c #005D6F",
":+	c #056AB5",
"<+	c #0B5DE7",
"[+	c #0C5CF1",
"}+	c #0C5FF2",
"|+	c #206AEE",
"1+	c #6D87E5",
"2+	c #9599EA",
"3+	c #A3A4F3",
"4+	c #A5A5EF",
"5+	c #BDBDED",
"6+	c #D3D4E3",
"7+	c #BABABE",
"8+	c #A9A9A9",
"9+	c #9D9D9D",
"0+	c #8C8B8B",
"a+	c #6F6A66",
"b+	c #5C5239",
"c+	c #776E15",
"d+	c #6F5005",
"e+	c #511E01",
"f+	c #2A1104",
"g+	c #2E211C",
"h+	c #3A3230",
"i+	c #1B1818",
"j+	c #090808",
"k+	c #2C0000",
"l+	c #260000",
"m+	c #100000",
"n+	c #030609",
"o+	c #061B2C",
"p+	c #065297",
"q+	c #0D52D9",
"r+	c #1D43F9",
"s+	c #4663F6",
"t+	c #5C7AF8",
"u+	c #7590FA",
"v+	c #B4BBF2",
"w+	c #D3D3F3",
"x+	c #D9D9F3",
"y+	c #C4C4DD",
"z+	c #C0C0CF",
"A+	c #BDBDC2",
"B+	c #A2A2A3",
"C+	c #939393",
"D+	c #8B8A89",
"E+	c #86807C",
"F+	c #7C5851",
"G+	c #73351F",
"H+	c #745409",
"I+	c #544001",
"J+	c #291801",
"K+	c #110904",
"L+	c #1A1818",
"M+	c #030101",
"N+	c #200000",
"O+	c #0D0000",
"P+	c #131419",
"Q+	c #242C48",
"R+	c #2944B0",
"S+	c #3047E7",
"T+	c #4952FA",
"U+	c #9598EF",
"V+	c #BEC0F2",
"W+	c #D1D3F9",
"X+	c #DFDFF0",
"Y+	c #E3E3E9",
"Z+	c #D9D9DB",
"`+	c #B3B3B5",
" @	c #9E9E9F",
".@	c #949494",
"+@	c #898988",
"@@	c #848382",
"#@	c #85827B",
"$@	c #8E846C",
"%@	c #955842",
"&@	c #8C2314",
"*@	c #552105",
"=@	c #281700",
"-@	c #040302",
";@	c #121212",
">@	c #050404",
",@	c #0E0000",
"'@	c #171717",
")@	c #4A4B4D",
"!@	c #888A98",
"~@	c #9EA4D8",
"{@	c #A6ACF5",
"]@	c #B1B3FC",
"^@	c #D4D4F6",
"/@	c #E4E4F4",
"(@	c #E2E2EB",
"_@	c #C4C4C8",
":@	c #B3B3B4",
"<@	c #A6A6A6",
"[@	c #898989",
"}@	c #858584",
"|@	c #828281",
"1@	c #85807B",
"2@	c #8F866C",
"3@	c #A89F45",
"4@	c #8D6E23",
"5@	c #592509",
"6@	c #270F02",
"7@	c #0E0500",
"8@	c #030200",
"9@	c #020101",
"0@	c #030000",
"a@	c #535353",
"b@	c #323232",
"c@	c #393939",
"d@	c #555555",
"e@	c #626262",
"f@	c #666666",
"g@	c #676767",
"h@	c #6D6D6D",
"i@	c #999999",
"j@	c #CDCDD1",
"k@	c #DDDDEE",
"l@	c #E1E1F7",
"m@	c #DEDEF3",
"n@	c #D4D4DD",
"o@	c #CDCDCF",
"p@	c #C1C1C2",
"q@	c #A3A3A3",
"r@	c #8B8B8B",
"s@	c #848484",
"t@	c #818181",
"u@	c #81807F",
"v@	c #84807B",
"w@	c #936F67",
"x@	c #9E614A",
"y@	c #8F7025",
"z@	c #614D0E",
"A@	c #2B1903",
"B@	c #0E0600",
"C@	c #353535",
"D@	c #6E6E6E",
"E@	c #B1B1B1",
"F@	c #C9C9C9",
"G@	c #CFCFCF",
"H@	c #D0D0D0",
"I@	c #D1D1D1",
"J@	c #E0E0E0",
"K@	c #F0F0F1",
"L@	c #EDEDEE",
"M@	c #E7E7E8",
"N@	c #DADADB",
"O@	c #B4B4B5",
"P@	c #9F9F9F",
"Q@	c #838383",
"R@	c #808080",
"S@	c #80807F",
"T@	c #84827B",
"U@	c #90876D",
"V@	c #9E614B",
"W@	c #9B3223",
"X@	c #5C290C",
"Y@	c #0B0800",
"Z@	c #2D2D2D",
"`@	c #767676",
" #	c #B6B6B6",
".#	c #E5E5E5",
"+#	c #F1F1F1",
"@#	c #F4F4F4",
"##	c #F3F3F3",
"$#	c #F0F0F0",
"%#	c #E9E9E9",
"&#	c #C7C7C7",
"*#	c #B4B4B4",
"=#	c #858585",
"-#	c #828282",
";#	c #82827E",
">#	c #8C8B72",
",#	c #AAA54D",
"'#	c #927429",
")#	c #5E2A0E",
"!#	c #291004",
"~#	c #2C2C2C",
"{#	c #696969",
"]#	c #B5B5B5",
"^#	c #E2E2E2",
"/#	c #F9F9F9",
"(#	c #FBFBFB",
"_#	c #FAFAFA",
":#	c #DDDDDD",
"<#	c #C2C2C2",
"[#	c #A5A5A4",
"}#	c #949493",
"|#	c #8C8C89",
"1#	c #868684",
"2#	c #828280",
"3#	c #81817E",
"4#	c #818180",
"5#	c #81817F",
"6#	c #80807E",
"7#	c #898975",
"8#	c #9F9E53",
"9#	c #766C2D",
"0#	c #34230C",
"a#	c #100803",
"b#	c #AFAFAF",
"c#	c #E3E3E3",
"d#	c #F7F7F7",
"e#	c #DBDBDB",
"f#	c #A0A0A0",
"g#	c #979797",
"h#	c #91918F",
"i#	c #8A8A82",
"j#	c #858577",
"k#	c #88887F",
"l#	c #86867B",
"m#	c #848476",
"n#	c #88887E",
"o#	c #838375",
"p#	c #81817A",
"q#	c #82827B",
"r#	c #86856B",
"s#	c #585741",
"t#	c #1C1B13",
"u#	c #070604",
"v#	c #5D5D5D",
"w#	c #BEBEBE",
"x#	c #E7E7E7",
"y#	c #EBEBEB",
"z#	c #C8C8C8",
"A#	c #B4B4B3",
"B#	c #8C8C8C",
"C#	c #8F8F8E",
"D#	c #9E9E9A",
"E#	c #9A9A7D",
"F#	c #92925E",
"G#	c #9E9E7A",
"H#	c #99996F",
"I#	c #92925D",
"J#	c #99996D",
"K#	c #8B8B57",
"L#	c #83836B",
"M#	c #808079",
"N#	c #7F7F7D",
"O#	c #787872",
"P#	c #4C4C46",
"Q#	c #171715",
"R#	c #BEBEBD",
"S#	c #A3A39F",
"T#	c #93938F",
"U#	c #9B9B99",
"V#	c #B8B8B0",
"W#	c #B4B498",
"X#	c #A8A871",
"Y#	c #B8B869",
"Z#	c #B4B465",
"`#	c #ADAD64",
" $	c #BDBD6A",
".$	c #9F9F62",
"+$	c #8B8B72",
"@$	c #777776",
"#$	c #5B5B5B",
"$$	c #333333",
"%$	c #7A7A79",
"&$	c #85857D",
"*$	c #8B8B71",
"=$	c #82826C",
"-$	c #74746C",
";$	c #70706D",
">$	c #7F7F7C",
",$	c #9B9B94",
"'$	c #C8C8AF",
")$	c #C3C3A3",
"!$	c #ADAD80",
"~$	c #B9B94E",
"{$	c #C0C05E",
"]$	c #C6C67E",
"^$	c #D6D665",
"/$	c #CACA66",
"($	c #AEAE74",
"_$	c #91917D",
":$	c #81817D",
"<$	c #6E6E6D",
"[$	c #3B3B3B",
"}$	c #37372E",
"|$	c #535332",
"1$	c #8D8D2F",
"2$	c #7F7F2D",
"3$	c #54532C",
"4$	c #42422E",
"5$	c #434336",
"6$	c #5C5C41",
"7$	c #A7A74D",
"8$	c #9D9D4A",
"9$	c #71713B",
"0$	c #6B6B27",
"a$	c #91915C",
"b$	c #C2C29F",
"c$	c #CFCF96",
"d$	c #BDBD77",
"e$	c #9F9F5D",
"f$	c #8B8B6E",
"g$	c #7F7F77",
"h$	c #6B6B6A",
"i$	c #313131",
"j$	c #030302",
"k$	c #32320C",
"l$	c #61610D",
"m$	c #7F7F0D",
"n$	c #7F7F0C",
"o$	c #73720C",
"p$	c #6D6D0D",
"q$	c #535310",
"r$	c #424113",
"s$	c #726E17",
"t$	c #817D17",
"u$	c #7D7C13",
"v$	c #7F7F10",
"w$	c #8B8B3E",
"x$	c #9F9F7E",
"y$	c #BEBEA3",
"z$	c #BABA94",
"A$	c #A4A474",
"B$	c #8D8D77",
"C$	c #7E7E78",
"D$	c #686867",
"E$	c #0A0A01",
"F$	c #414101",
"G$	c #7B7B01",
"H$	c #717101",
"I$	c #807F01",
"J$	c #9D9B01",
"K$	c #B4B201",
"L$	c #8C8901",
"M$	c #544D01",
"N$	c #553C01",
"O$	c #756101",
"P$	c #9E9802",
"Q$	c #B8B703",
"R$	c #A0A017",
"S$	c #828240",
"T$	c #A3A38C",
"U$	c #AFAF9F",
"V$	c #A8A894",
"W$	c #8F8F86",
"X$	c #787876",
"Y$	c #5C5C5C",
"Z$	c #0A0100",
"`$	c #0A0500",
" %	c #292700",
".%	c #575700",
"+%	c #818100",
"@%	c #7E7E00",
"#%	c #7A7700",
"$%	c #B9B000",
"%%	c #C3B800",
"&%	c #B19600",
"*%	c #A24900",
"=%	c #8B4000",
"-%	c #846900",
";%	c #BDB701",
">%	c #C1C106",
",%	c #A3A317",
"'%	c #79793F",
")%	c #777765",
"!%	c #86867F",
"~%	c #80807D",
"{%	c #5F5F5F",
"]%	c #080000",
"^%	c #280000",
"/%	c #430100",
"(%	c #270700",
"_%	c #3B3100",
":%	c #656300",
"<%	c #777200",
"[%	c #635C00",
"}%	c #594800",
"|%	c #AE7600",
"1%	c #D5A200",
"2%	c #D2AC00",
"3%	c #A55700",
"4%	c #8D4E00",
"5%	c #917A00",
"6%	c #C4BF00",
"7%	c #B7B701",
"8%	c #848406",
"9%	c #494917",
"0%	c #4F4F41",
"a%	c #747474",
"b%	c #505050",
"c%	c #1F1F1F",
"d%	c #070000",
"e%	c #190000",
"f%	c #570000",
"g%	c #890200",
"h%	c #4B0900",
"i%	c #563F00",
"j%	c #7A7200",
"k%	c #6A5100",
"l%	c #533900",
"m%	c #512F00",
"n%	c #993700",
"o%	c #BE6B00",
"p%	c #BE9700",
"q%	c #886500",
"r%	c #856E00",
"s%	c #9E9600",
"t%	c #B6B400",
"u%	c #8B8B00",
"v%	c #464601",
"w%	c #1E1E07",
"x%	c #30302B",
"y%	c #565655",
"z%	c #1A1A1A",
"A%	c #180000",
"B%	c #3E0000",
"C%	c #7D0000",
"D%	c #A30100",
"E%	c #540400",
"F%	c #3D1E00",
"G%	c #513600",
"H%	c #802800",
"I%	c #934600",
"J%	c #8E6500",
"K%	c #713B00",
"L%	c #683B00",
"M%	c #6F5600",
"N%	c #887A00",
"O%	c #7B7400",
"P%	c #605E00",
"Q%	c #565500",
"R%	c #393900",
"S%	c #181800",
"T%	c #131312",
"U%	c #250000",
"V%	c #490000",
"W%	c #4E0000",
"X%	c #680000",
"Y%	c #7C0000",
"Z%	c #530100",
"`%	c #390A00",
" &	c #361200",
".&	c #600F00",
"+&	c #743200",
"@&	c #6F5200",
"#&	c #482900",
"$&	c #4E1A00",
"%&	c #692700",
"&&	c #735400",
"*&	c #564C00",
"=&	c #2D2C00",
"-&	c #1D1D00",
";&	c #101000",
">&	c #050500",
",&	c #3F0000",
"'&	c #710000",
")&	c #520000",
"!&	c #4B0000",
"~&	c #510000",
"{&	c #450100",
"]&	c #380200",
"^&	c #3B0300",
"/&	c #381100",
"(&	c #321D00",
"_&	c #350E00",
":&	c #590700",
"<&	c #7A0900",
"[&	c #511C00",
"}&	c #291800",
"|&	c #0B0A00",
"1&	c #240000",
"2&	c #430000",
"3&	c #6E0000",
"4&	c #800000",
"5&	c #5A0000",
"6&	c #620000",
"7&	c #780000",
"8&	c #650100",
"9&	c #430400",
"0&	c #330700",
"a&	c #680300",
"b&	c #6D0100",
"c&	c #510200",
"d&	c #260600",
"e&	c #2F0000",
"f&	c #2A0000",
"g&	c #3A0000",
"h&	c #550000",
"i&	c #5D0000",
"j&	c #6A0000",
"k&	c #530000",
"l&	c #370000",
"m&	c #6D0000",
"n&	c #610000",
"o&	c #300000",
"p&	c #3C0000",
"q&	c #330000",
"r&	c #440000",
"s&	c #480000",
"t&	c #420000",
"u&	c #350000",
"v&	c #380000",
"w&	c #060000",
"x&	c #2B0000",
"y&	c #390000",
"z&	c #4A0000",
"A&	c #4C0000",
"B&	c #360000",
"C&	c #1D0000",
"D&	c #230000",
"E&	c #6B0000",
"F&	c #500000",
"G&	c #290000",
"H&	c #0A0000",
"I&	c #140000",
"J&	c #340000",
"K&	c #0F0000",
"L&	c #110000",
"M&	c #580000",
"N&	c #5B0000",
"O&	c #5F0000",
"P&	c #320000",
"Q&	c #560000",
"R&	c #1A0000",
"S&	c #090000",
"T&	c #2E0000",
"U&	c #270000",
"V&	c #120000",
". . . . . . . . . . . . . . + @ # $ . . . . . . . . . . . . . . . . . . . . . . . . . . . . . . ",
". . . . . . . . . . . . . $ % & * % + . . . . . . . . . = @ + $ . . . . . . . . . . . . . . . . ",
". . . . . . . . . . . . . + - ; > , = . . . . . . . . + ' ) - # . . . . . . . . . . $ $ . . . . ",
". . . . . . . . . . . . . $ ! * ~ ! + . . . . . . . $ % { ] ^ ' $ . . . . . . . . + % ! = $ . . ",
". . . . = @ + $ . . . . . . + % / + . . . . . . . . $ ! ^ ( _ - + = = $ . . . . = ' { ^ : # . . ",
". . . + ' ) - # . . . . . . . . . . . . . . . . . . . + : < [ / / } ' @ $ . . . @ ) ] ( < ! . . ",
". . $ % { ] ^ ' $ . . . . . . . . . . . . . . . . . . $ # ! = # } | { ~ @ . . . + - ^ _ [ = . . ",
". . $ ! ^ ( _ - $ . 1 2 1 . . . . . . . . . . . . . . . . . . = , { ^ : # . . . $ # ' - @ $ . . ",
". . . + : < [ @ 1 2 3 4 5 2 . . . . . . . . . . . . . . . . . $ @ ~ : / $ . . . . . $ $ . . . . ",
". . . $ # ! = $ 1 6 7 8 9 3 . . . . . . . . . . . . . . . . . . $ @ # $ . . . . . . . . . . . . ",
"$ $ + $ . . . . 1 6 9 0 a b . . . . . . . . $ + $ . . . . . . . . . . $ # # $ . . . . . . . . . ",
"+ % - ! + . . . . 2 c d 5 2 1 $ $ . . . . + % - ! + . . . . . . . . $ ! e f % + g h i $ . . . . ",
"@ & ; * % . . . . . 2 j 2 1 + % ! = $ . $ # & ; * % . . . . . . . . # e k l ) m n o p q = $ . . ",
"# * > ~ / . . . . . . . . = ' { ^ : # . $ # * > ~ / . . . . . . . . # f l r s t u v w x y # . . ",
"$ % , ! + . . . . . . . $ @ ) ] ( < ! . . + z , ! + . . . . . . . . $ % ) s A B C D E F G q . . ",
". + = + . . . . . . . + / ! , ^ _ [ = . . . + = + . . . . . . . . . . + m t B H I J K L M N . . ",
". . . . . . . . . . + O P Q : } - @ $ . . . . . . . . . . $ @ / / = $ h R S T U V W X Y Z ` . . ",
". . . . . . . . . . = ~  ...+./ @.#.#.#.#.$.2 2 2 %.+ + # &.< *.Q =.-.;.>.,.'.).!.~.{.].R h . . ",
". . . . . . . . . . + &.^./.(._.:.<.[.[.}.|.1.2.3.4.5.[ } 6.7.8.9.0.a.b.c.d.e.f.g.h.i.j.k.. . . ",
". . . . . . . . . . . = O &.l.m.n.o.p.q.r.s.t.u.v.w.x.y.z.A.B.C.D.E.F.G.H.I.J.K.L.M.N.k.O.P.P.O.",
". . . . . . . . . . . . $ @.Q.R.S.T.U.V.W.X.Y.Z.`. +.+++@+#+$+%+&+*+=+-+;+>+,+'+)+!+g O.~+{+]+^+",
". . . . . . . . . . . . . /+(+_+:+<+[+}+|+1+2+3+4+5+6+7+8+9+0+a+b+c+d+e+f+g+h+i+j+$ . P.{+k+l+m+",
". . . . = @ + $ . . . . . n+o+p+q+r+s+t+u+v+w+x+y+z+A+B+C+D+E+F+G+H+I+J+K+L+> ~ z @ + M+]+l+N+O+",
". . . + ' ) - @ + + + = @ P+Q+R+S+T+U+V+W+X+Y+Z+`+ @.@+@@@#@$@%@&@*@=@;.-@z , z ;@) - >@~+,@]+~+",
". . $ % { ] ; f - [ [ ' '@)@!@~@{@]@^@/@(@_@:@<@C+[@}@|@1@2@3@4@5@6@7@8@g + @ &.{ ] ^ ' 9@0@0@O.",
". . $ ! ^ a@b@c@d@e@f@g@h@i@j@k@l@m@n@o@p@q@C+r@s@t@u@v@w@x@y@z@A@B@0@. . . $ ! ^ ( _ - $ . . . ",
". . . = } _ C@D@E@F@G@H@I@J@K@L@M@N@O@P@.@[@Q@t@R@S@T@U@V@W@X@A@Y@8@. . . . . + : < [ @ . . . . ",
". . . + [ Z@`@ #.#+#@###$#$#%#&#*#<@C+[@=#-#R@R@R@;#>#,#'#)#!#B@8@. . . . . . $ # ! = $ . . . . ",
". . $ / ~#{#]#^#/#(#_###:#G@<#[#}#|#1#2#3#4#5#6#S@;#7#8#9#0#a#0@. . . . . . . . . . . . . . . . ",
". . + O a@b#c#d#_#$#%#e#]#f#g#h#i#j#k#l#m#n#l#o#p#6#q#r#s#t#u#. . . . . . . . . . . . . . . . . ",
". . + - v#w#x#@#y#z#A#<@C+B#C#D#E#F#G#H#I#G#J#K#L#M#N#O#P#Q#@ . . . . . . . . . . . . . . . . . ",
". . $ z r =#E@<#R#S#T#+@-#[@U#V#W#X#Y#Z#`# $Z#.$+$p#@$#$$$[ = . . . . . . . . . . . . . . . . . ",
". . . = f C@e@%$&$*$=$-$;$>$,$'$)$!$~${$]$^$/$($_$:$<$[$e @ $ . . . . . . . . . . . . . . . . . ",
". . . $ @ , Q }$|$1$2$3$4$5$6$7$8$9$0$a$b$c$d$e$f$g$h$i$' + . . . . . . . . . . . . . . . . . . ",
". . . . . j$p k$l$m$n$o$p$q$r$s$t$u$v$w$x$y$z$A$B$C$D$~#- $ . . . . 1 2 1 . . . . . . . . . . . ",
". . . . O.8@E$F$G$H$I$J$K$L$M$N$O$P$Q$R$S$T$U$V$W$X$Y$*.(.$ . . . 2 3 4 5 2 . . . $ . . . $ $ . ",
". . . O.^+Z$`$ %.%+%@%#%$%%%&%*%=%-%;%>%,%'%)%!%~%{%C@} # . . . 1 6 7 8 9 3 1 $ = @ = $ + / @ + ",
". . P.]%^%/%(%_%:%<%[%}%|%1%2%3%4%5%6%7%8%9%0%<$a%b%c%z $ . . . 1 6 9 0 a b 1 = ;@c%, ! O P ^., ",
". P.d%e%f%g%h%i%j%k%l%m%n%o%p%q%r%s%t%u%v%w%x%y%{%r ~ @ . . . . . 2 c d 5 2 $ @ /.C@z%O f  ...z%",
"O.d%A%B%C%D%E%F%G%H%I%J%K%L%M%N%O%P%Q%R%S%N T%Q _ ) % + . . . . . . 2 6 2 . . = , z%O / &.^./.- ",
"d%U%V%W%X%Y%Z%`% &.&+&@&#&$&%&&&*&=&-&;&>&i % , [ % + . . . . . . . $ + $ . . $ @ % # + = O &.# ",
"O+,&'&)&!&~&~&{&]&^&/&(&_&:&<&[&}&|&k.g g + ' ) [ @ . . . . . . . + % - ! + . . . $ . $ + $ $ . ",
"{+1&2&)&3&4&5&6&7&8&9&0&a&b&c&d&7@8@. . $ % { ] ^ ' $ . . . . . $ # & ; * % . . . . $ @ z # $ . ",
"e&f&^%g&h&X%h&i&j&k&l&e&m&n&o&m+0@. . . $ ! ^ ( _ - $ . . . . . $ # * > ~ / . . . $ @ ^.../.&.$ ",
"W%p&l+^%k+q&r&s&t&u&o&v&5&r&A%w&. . . . . + : < [ @ . . . . . . . + z , ! + . . . + z ..{#$$: $ ",
"x&y&z&A&B&C&D&g&)&f%E&7&F&G&H&P.. . . . . $ # ! = $ . . . . . . . . + = + . . . . $ # /.$$e % $ ",
"I&J&f%z&k+K&L&q&M&~&N&O&P&I&0@. . . . . . . . . . . . . . . . . . . . . . . . . . . $ &.: % = . ",
"H&o&Q&l&R&d%S&o&Q&g&T&U&V&w&. . . . . . . . . . . . . . . . . . . . . . . . . . . . . $ $ $ . . "};
