/* XPM */
static char *sdlroids-32x32[] = {
/* width height num_colors chars_per_pixel */
"    32    32      251            2",
/* colors */
".. c #000000",
".# c #010101",
".a c #030303",
".b c #0c0c0c",
".c c #242424",
".d c #020202",
".e c #090909",
".f c #121212",
".g c #060606",
".h c #8f8f8f",
".i c #808080",
".j c #040404",
".k c #aaaaaa",
".l c #969696",
".m c #484848",
".n c #090900",
".o c #1b1b1b",
".p c #f1f1f1",
".q c #000012",
".r c #010000",
".s c #000002",
".t c #161616",
".u c #000006",
".v c #090000",
".w c #848484",
".x c #191800",
".y c #040000",
".z c #0d0d0d",
".A c #f8f8f8",
".B c #070707",
".C c #010100",
".D c #120000",
".E c #80807f",
".F c #f6f6f6",
".G c #101010",
".H c #482400",
".I c #81817b",
".J c #6c6c6c",
".K c #050505",
".L c #252525",
".M c #130000",
".N c #1d0000",
".O c #a30000",
".P c #838381",
".Q c #2a2a2a",
".R c #000001",
".S c #020000",
".T c #0f0f0f",
".U c #ababab",
".V c #080000",
".W c #000004",
".X c #000048",
".Y c #060000",
".Z c #000101",
".0 c #4c2804",
".1 c #590000",
".2 c #8c8073",
".3 c #200000",
".4 c #480000",
".5 c #727272",
".6 c #cfcfcf",
".7 c #1c1c1c",
".8 c #610000",
".9 c #7f7e7e",
"#. c #0e32d0",
"## c #797979",
"#a c #0c0000",
"#b c #8f8f43",
"#c c #3d0000",
"#d c #ad9500",
"#e c #131313",
"#f c #ababe7",
"#g c #abab87",
"#h c #b3b7dd",
"#i c #7b7b7a",
"#j c #ffffff",
"#k c #0e4afa",
"#l c #b8b89f",
"#m c #a8a600",
"#n c #1b0000",
"#o c #272724",
"#p c #beb828",
"#q c #585824",
"#r c #3c3c00",
"#s c #5c0000",
"#t c #300300",
"#u c #c60000",
"#v c #c9c9c9",
"#w c #da4800",
"#x c #d5c900",
"#y c #910000",
"#z c #000f10",
"#A c #a4a4a3",
"#B c #2d2d2d",
"#C c #01b4cf",
"#D c #9a9404",
"#E c #c3c303",
"#F c #ac1c16",
"#G c #d5d540",
"#H c #c1c1bd",
"#I c #9d0000",
"#J c #2a0000",
"#K c #313122",
"#L c #515100",
"#M c #181818",
"#N c #0d0d10",
"#O c #0a0202",
"#P c #0d0d01",
"#Q c #0d101c",
"#R c #0a0a09",
"#S c #001819",
"#T c #e0e0d3",
"#U c #cfcff6",
"#V c #f0f0f9",
"#W c #9e9e00",
"#X c #2f2400",
"#Y c #4b2401",
"#Z c #210900",
"#0 c #4b4b00",
"#1 c #2d2d09",
"#2 c #540000",
"#3 c #230000",
"#4 c #980000",
"#5 c #c2bf8f",
"#6 c #d7d700",
"#7 c #644000",
"#8 c #c0c000",
"#9 c #939300",
"a. c #0092ab",
"a# c #979797",
"aa c #000c0d",
"ab c #6c0000",
"ac c #e4bd00",
"ad c #be2e28",
"ae c #c3c3c3",
"af c #2d0000",
"ag c #5a0000",
"ah c #373600",
"ai c #585700",
"aj c #abab18",
"ak c #282819",
"al c #8a8a66",
"am c #888884",
"an c #1a0000",
"ao c #aaa100",
"ap c #d2d2fe",
"aq c #b9b97d",
"ar c #0d3dff",
"as c #fefefe",
"at c #7b7b7b",
"au c #4e2a06",
"av c #aeaeae",
"aw c #9b9b4a",
"ax c #ababae",
"ay c #180c00",
"az c #b68f00",
"aA c #360300",
"aB c #939200",
"aC c #86867a",
"aD c #0b0000",
"aE c #787878",
"aF c #1c25ff",
"aG c #7e7e7e",
"aH c #5d0000",
"aI c #1c1c13",
"aJ c #d0d0a6",
"aK c #707070",
"aL c #400000",
"aM c #656532",
"aN c #81816f",
"aO c #838371",
"aP c #222222",
"aQ c #1c1ccf",
"aR c #ababa5",
"aS c #000310",
"aT c #8a7e72",
"aU c #000010",
"aV c #010110",
"aW c #81817f",
"aX c #680000",
"aY c #2d2400",
"aZ c #d2d2d2",
"a0 c #f56303",
"a1 c #271800",
"a2 c #490000",
"a3 c #180000",
"a4 c #262525",
"a5 c #070400",
"a6 c #888887",
"a7 c #919148",
"a8 c #2d2d00",
"a9 c #e39b00",
"b. c #606000",
"b# c #3f3300",
"ba c #5b0000",
"bb c #300000",
"bc c #c4c4c4",
"bd c #c53600",
"be c #e3bf24",
"bf c #6f0000",
"bg c #000d0d",
"bh c #a0a0a0",
"bi c #009eab",
"bj c #a19200",
"bk c #c2c203",
"bl c #694500",
"bm c #dada00",
"bn c #c4c482",
"bo c #9b0000",
"bp c #280000",
"bq c #550000",
"br c #303018",
"bs c #554900",
"bt c #330c00",
"bu c #4c2700",
"bv c #312400",
"bw c #ab9f0c",
"bx c #f5f5f5",
"by c #cfcfff",
"bz c #e8e8f1",
"bA c #191919",
"bB c #0c0c00",
"bC c #1010cf",
"bD c #101008",
"bE c #0f0606",
"bF c #0f0f0c",
"bG c #330f06",
"bH c #51512d",
"bI c #453000",
"bJ c #2b0000",
"bK c #950600",
"bL c #c3c3b4",
"bM c #e1e14b",
"bN c #ba2b00",
"bO c #c2bf30",
"bP c #9e9b00",
"bQ c #00bfcf",
"bR c #42362a",
"bS c #a5a5a5",
"bT c #001010",
"bU c #950300",
"bV c #d7c800",
"bW c #e95400",
"bX c #ccccf8",
"bY c #a41500",
"bZ c #360000",
"b0 c #540c00",
"b1 c #484815",
"b2 c #616161",
"b3 c #bdbd2d",
"b4 c #33271b",
/* pixels */
"...................#.g.#........................................",
"...................g.m.f.............#.b.a......................",
"...................d.f.j.............b.h.c.............#.b.a....",
".....#.b.a...........................a.c.e.#.e.d.......b.h.c....",
".....b.h.c.................................e.J.o.......a.c.e....",
".....a.c.e...R.u.s.........................d.o.B................",
".............u.X.q..............................................",
".#.g.d.......s.q.W...........#.g.d.............#.b.a............",
".g.m.f.............#.b.a.....g.m.f.............b.h.c.C#PbF.a....",
".#.f.j.............b.h.c.....d.f.j.............a.c#R.xbw#5#o....",
"...............#.e.K.c.e.........................C.x#da0be#1....",
"...............e.J.o...................#.z.T.a.C.x#dbWa9bs.n....",
"...............d.o.B.ZbgbT#zaSaUaV#N.G.7bS#Ha4aybj#wb0aY.n......",
"...................Z#SbibQ#C#.bCaQ#h#vbcbha6b4bK#YbG#O.....r.Y.S",
"..................aaa.#kar#k#fbybXbz.k.l.9bR#D.HbE.m.f.....Y.4.D",
".....#.b.a.......##Q#.aF#fap#V.p.k.l.w.EaT#F.H.n.d.f.K.b.a.S.D.y",
".....b.h.L.z.G.G.7ax#Uap#V.p.k.l.w.i.E.2#p.0.v.......b.h.c......",
".....a.LaP.U.6.6aZ.F.A.p.k.l.w.i.i.E.2ad.0.n.........a.c.e......",
".....#bAav.F#jas.A.p.k.l.w.i.i.i.iaCbOau.v......................",
".....z.U.F#j.A.p.ka#a6.I.P.I.P.I.EaWalaI........................",
".....Taebx.p.k.l.wa6aRa7#ga7#g#baN.i.5.t........................",
".....a#BaG.haC#iat#A#T#l#GbnbMaqam##.Q.j........................",
".......##ebrajb1ak#Kb3#qb1bLaJawaOaE#M..........................",
"........bB#9b.#m#8ahb##m#EaM#H#lam.5.t.......R.u.s..............",
".....r#aa5#r#Wai#xbVbN#7#6bkbH#iat.Q.j.......u.X.q...#.g.d.#.e.d",
"...r.M#IbtaBbsa1bdacblaobm#LbDb2aK.t.........s.q.W...g.m.f.e.J.o",
".r.Dag#uaAbvbYazbubIbP#0a8.n.d#e.t.j.................d.f.j.d.o.B",
"#a#yaL#cbq#3#t#X#ZbU.H.n.....#.b.a...........#.g.d..............",
"aDbJaH.O.4boab.3#4a2.v.......b.h.c...........g.m.f.......#.b.a..",
"baan.Nbb#2#c#3#nbf#n.........a.c.e...........d.f.j.......b.h.c..",
".N.1#s.Ma3.1aX.ObZ.y.....................................a.c.e..",
".V.8#J.y.V.8afbp.v.............................................."
};
