/* XPM */
static char * sdlroids_16x16_xpm[] = {
"16 16 109 2",
"  	c None",
". 	c #000000",
"+ 	c #020202",
"@ 	c #181818",
"# 	c #030303",
"$ 	c #010101",
"% 	c #060606",
"& 	c #303030",
"* 	c #0C0C0C",
"= 	c #0B0B0B",
"- 	c #000002",
"; 	c #2A2A2A",
"> 	c #000018",
", 	c #000006",
"' 	c #040404",
") 	c #383838",
"! 	c #343103",
"~ 	c #3F3E30",
"{ 	c #252525",
"] 	c #070707",
"^ 	c #383200",
"/ 	c #DC7A01",
"( 	c #5C500B",
"_ 	c #080909",
": 	c #003134",
"< 	c #006470",
"[ 	c #081170",
"} 	c #373873",
"| 	c #6E6E6E",
"1 	c #A4A4A2",
"2 	c #421810",
"3 	c #7E4302",
"4 	c #230C00",
"5 	c #020200",
"6 	c #020000",
"7 	c #04070A",
"8 	c #0E4DDD",
"9 	c #6681F8",
"0 	c #D7D7F4",
"a 	c #BDBDCA",
"b 	c #919191",
"c 	c #7E544C",
"d 	c #4D3901",
"e 	c #1B1818",
"f 	c #090909",
"g 	c #030101",
"h 	c #1C0000",
"i 	c #313131",
"j 	c #404040",
"k 	c #707070",
"l 	c #A4A4A4",
"m 	c #E2E2F7",
"n 	c #C8C8CA",
"o 	c #818181",
"p 	c #966C63",
"q 	c #58440C",
"r 	c #343434",
"s 	c #E6E6E6",
"t 	c #FAFAFA",
"u 	c #CACACA",
"v 	c #929290",
"w 	c #828280",
"x 	c #81817F",
"y 	c #82827E",
"z 	c #6E642C",
"A 	c #BDBDBD",
"B 	c #90908D",
"C 	c #8B8B8A",
"D 	c #B5B598",
"E 	c #B5B564",
"F 	c #80807B",
"G 	c #2E2E2E",
"H 	c #38380B",
"I 	c #7F7E0B",
"J 	c #54540F",
"K 	c #7F7C14",
"L 	c #8D8D40",
"M 	c #B9B993",
"N 	c #7D7D78",
"O 	c #2F0000",
"P 	c #423800",
"Q 	c #5C5600",
"R 	c #D5A100",
"S 	c #8C5400",
"T 	c #B1B101",
"U 	c #4F4F44",
"V 	c #4B4B4B",
"W 	c #151515",
"X 	c #080808",
"Y 	c #242424",
"Z 	c #2C0000",
"` 	c #670000",
" .	c #380A00",
"..	c #6E3300",
"+.	c #521900",
"@.	c #4E4500",
"#.	c #0E0E00",
"$.	c #050505",
"%.	c #2B0000",
"&.	c #530000",
"*.	c #5D0000",
"=.	c #320000",
"-.	c #5B0000",
";.	c #0A0A0A",
">.	c #380000",
",.	c #270000",
"'.	c #360000",
").	c #580000",
"!.	c #110000",
". . . . + @ . . . # $ . . . . . ",
". # $ . . % . . . & * # . # & . ",
". & = - . . . . . . # ; . $ = . ",
"+ . . > , . . + . . . . ' . . . ",
"@ % . . # & . @ % . . ' ) ! ~ . ",
". . . + { = . . . . ] $ ^ / ( . ",
". . . . _ : < [ } | 1 2 3 4 5 6 ",
". # $ . 7 8 9 0 a b c d e f g h ",
". i j k l m n b o p q 6 . & = . ",
". r s t u v w x y z 6 . . . . . ",
". j A B C D E E F G . . . . . . ",
". . H I J K L M N * . - . . . . ",
". O P Q R S T U V $ . > , W X Y ",
"Z `  ...+.@.#.X ] . . + . $.+ X ",
"%.&.*.=.-.6 . & = . . @ % . ; ;.",
">.,.'.).!.. . . . . . . . . ;.+ "};
